<?xml version="1.0" encoding="utf-8"?>
<!-- Generator: Adobe Illustrator 28.2.0, SVG Export Plug-In . SVG Version: 6.00 Build 0)  -->
<svg version="1.1" id="Capa_1" xmlns="http://www.w3.org/2000/svg" xmlns:xlink="http://www.w3.org/1999/xlink" x="0px" y="0px"
	 viewBox="0 0 151.8 32" style="enable-background:new 0 0 151.8 32;" xml:space="preserve">
<style type="text/css">
	.st0{fill:#FFFFFF;}
	.st1{fill:#FBD000;}
	.st2{fill:#00549F;}
	.st3{fill:#D21A3A;}
</style>
<path class="st0" d="M24.5,11.2l-1.9,0.7l-0.2,0.5L22,12.7c-0.1-1.6-0.2-2.2-0.2-2.2l0.7,0l1.3-1.6l-1.9,0.8l-0.2,0.5l-1.8,1.4
	c0,0.3,0.1,1.4,0.1,2.4l0.4-0.3c0.2,7.7-3.3,10.5-3.3,10.5c-0.9-0.4-1.1-0.7-1.1-0.7c3.2-3.6,3-8.7,3-8.9L18.6,15c0,0,0.1-1.6,0-2.4
	L18.1,13c0-0.5,0-1-0.1-1.3c0.4,0,0.7,0,1-0.2c0.3-0.2,0.5-0.9,0.5-1.2c0.1-0.3,0-0.4-0.2-0.5c-0.2-0.1-0.5-0.4-0.7-0.6
	c0,0,0.3-0.1,1,0.2c0.8,0.4,1.3,0.2,2-0.8l-0.8,0.1L21,8.2c0,0,0,0,0,0c0.1,0.1,0.5,0.2,0.7,0.2c0.2,0,0.2,0,0.3,0.1
	c0.1,0.1,0.2,0.1,0.3,0.1c0,0,0.4,0.2,0.6,0c0,0,0.2,0.1,0.3,0.1c0.1,0,0.3,0.1,0.4,0.1c0.1,0,0.2,0.1,0.3,0.1
	c0.3,0.1,0.4,0.1,0.5,0c0-0.1-0.2-0.3-0.3-0.4c-0.2-0.1-0.3-0.2-0.3-0.2c0.1,0,0-0.1-0.1-0.2c-0.1-0.1-0.5-0.3-0.5-0.3
	c0-0.1-0.4-0.3-0.6-0.5c-0.2-0.2-0.1-0.2-0.4-0.4c-0.3-0.3-1.4-1.2-2-1.6c-0.6-0.4-2.1-1.6-3.5-2c-1.3-0.4-2.1-0.3-2.7,0
	c-0.6,0.4-0.4,0.8-0.3,1.1C13.7,4.6,13.9,5,14,5.2c0.1,0.2,0,0.2,0,0.3c-0.1,0,0,0.1,0,0.1c-0.1,0-0.1,0.1-0.2,0.1
	c0,0-0.1,0.1-0.3,0.1c0-0.1,0-0.2,0-0.2c-0.1-0.1-0.2-0.1-0.2-0.1c0,0,0.1-0.1,0.1-0.1c-0.1,0-0.3,0-0.3,0c0,0,0.1-0.1,0.1-0.1
	c-0.2-0.1-0.3,0.1-0.4,0.2c-0.1-0.1-0.2-0.2-0.3-0.3c-0.1-0.1-0.2-0.2-0.3-0.4c0,0,0.1-0.1,0-0.3c-0.1-0.1-0.2-0.3-0.4-0.3
	c0,0,0.1,0,0.1-0.2c0-0.1-0.1-0.1-0.2-0.1c-0.1,0-0.2,0-0.3,0.1c0,0-0.1,0-0.2,0c0.1-0.3,0.1-0.7-0.4-1c-0.6-0.4-1.4-0.5-2.7,0
	c-1.3,0.4-2.9,1.6-3.5,2C4.2,5.7,3,6.6,2.8,6.8C2.5,7.1,2.6,7.1,2.4,7.3C2.2,7.5,1.8,7.7,1.8,7.8c0,0-0.3,0.2-0.5,0.3
	C1.2,8.2,1.2,8.3,1.2,8.3c0,0-0.1,0-0.3,0.2C0.8,8.6,0.6,8.8,0.6,8.9c0,0.1,0.2,0.1,0.5,0c0,0,0.2-0.1,0.3-0.1
	c0.1,0,0.3-0.1,0.4-0.1C1.9,8.7,2,8.6,2,8.6c0.2,0.2,0.6,0,0.6,0c0.1,0,0.2,0,0.3-0.1C3,8.5,3,8.5,3.2,8.5c0.2,0,0.5-0.2,0.7-0.2
	c0,0,0,0,0,0L4,8.7L3.2,8.6c0.7,1,1.2,1.2,2,0.8c0.7-0.3,1-0.2,1-0.2C6,9.3,5.7,9.7,5.5,9.8C5.3,9.9,5.2,10,5.3,10.3
	c0.1,0.3,0.2,1,0.5,1.2c0.3,0.2,0.7,0.3,1,0.2c0,0.3-0.1,0.7-0.1,1.3l-0.6-0.5c-0.1,0.8,0,2.4,0,2.4l-0.3-0.2c0,0.2-0.2,5.3,3,8.9
	c0,0-0.2,0.3-1.1,0.7c0,0-3.5-2.9-3.3-10.5l0.4,0.3c-0.1-1,0-2.1,0.1-2.4l-1.8-1.4L3,9.7L1.1,8.9l1.3,1.6l0.7,0c0,0-0.1,0.6-0.2,2.2
	l-0.4-0.3l-0.2-0.5l-1.9-0.7l1.4,1.5l0.7,0c0,0-0.7,6.8,1.6,10.4c1.9,3,4.7,3.1,7.2,1.4c-0.1,0.3-0.4,1.2-1.2,2.8c0,0,0.5,0,1,0.1
	c0,0-0.1,0.4-0.2,0.6c-0.1,0.1,0,0.4,0.2,0.4c0.3,0,0.6,0,0.6,0s0,0.3-0.1,0.5c0,0.2,0,0.3,0.9,0.4c0.9,0,0.9-0.1,0.9-0.4
	c0-0.2-0.1-0.5-0.1-0.5s0.3,0,0.6,0c0.3,0,0.3-0.2,0.2-0.4c-0.1-0.1-0.2-0.6-0.2-0.6c0.5-0.1,1-0.1,1-0.1c-0.9-1.6-1.2-2.5-1.3-2.8
	c2.5,1.7,5.3,1.7,7.2-1.4c2.3-3.6,1.6-10.4,1.6-10.4l0.7,0L24.5,11.2z M13.5,8.6c0.1-0.3,0.1-0.6,0.2-0.6c0.1,0,0.2,0.1,0.2,0
	C14,7.9,14,7.9,14,8c0,0.1,0.2,0.2,0.4-0.1c0.1-0.2,0.1-0.1,0.1,0c0,0.1,0.2,0.1,0.3,0c0.1-0.1,0.2-0.2,0.3-0.2c0.1,0,0.1,0,0.1-0.1
	c0-0.1,0.1-0.1,0.1-0.2c0-0.1-0.1-0.1,0-0.2c0.1,0,0.1-0.1,0.2,0c0.1,0,0.1,0,0.1,0c0,0,0.1,0.1,0.1,0c0-0.1,0.1-0.1,0.1,0
	c0.1,0.1,0.2,0.1,0.2,0.1c0,0,0-0.1,0.1,0c0,0.1,0.2,0.1,0.3,0.1c0,0,0.1,0.2,0.3,0.1c0.2,0,0.2-0.1,0.2-0.2c0-0.1-0.1-0.5,0.1-0.4
	c0.1,0.1,0.1,0,0.1,0c0-0.1,0.1,0,0.1,0c0.1,0,0-0.1,0.1,0C17.7,7,17.7,7,17.8,7.1c0.1,0,0.1,0,0.2,0.1c0.1,0.1,0.2,0.2,0.3,0.1
	c0,0,0.1,0.1,0.2,0.1c0,0,0.2,0.2,0.3,0.2c0,0,0.2,0.1,0.3,0.1c0.1,0,0.1-0.1,0.1,0c0,0,0-0.1,0.1,0c0.1,0.1,0.2,0.2,0.3,0.2
	c0,0,0.2,0.1,0.3,0.2c0.1,0,0.2,0.1,0.2,0.1s0,0,0.1,0c0.1,0.1,0.2,0.1,0.3,0.1c0.1,0,0.1,0,0.2,0c0,0,0.1,0,0.1,0
	c-0.2,0.3-0.5,0.5-1,0.3c-0.7-0.2-0.9-0.1-1.1,0c-0.2,0.1-0.5,0.6-0.6,0.9c-0.1,0.3,0,0.5,0.5,1.1c0,0-0.7,0-1.6-0.2
	c-0.9-0.3-1.7-0.4-2.6,0c-0.1,0.1-0.3,0.1-0.4,0.2c-0.1-0.1-0.3-0.3-0.4-0.4c0,0,0.1-0.3,0.1-0.4c0-0.2,0-0.3-0.1-0.4
	C13.5,9,13.4,8.9,13.5,8.6z M17.1,11.6c-0.4,0.3-1.1,0.6-2.1,0.6c-0.8,0-1.4-0.2-1.8-0.4c0.2-0.1,0.9-0.5,1.7-0.5
	c1,0,1.5,0.1,1.9,0.3C17,11.5,17.1,11.5,17.1,11.6z M13,10.1C13,10.1,13,10.1,13,10.1c0.2,0.1,0.4,0.1,0.4,0.1
	c0.1,0,0.3,0.3,0.4,0.4c-0.3,0.1-0.5,0.3-0.7,0.5c-0.1-0.2-0.1-0.6-0.1-0.7C12.9,10.2,13,10.2,13,10.1z M11.7,5.3
	c0.1,0.1,0.3,0.2,0.4,0.3c0,0,0,0.1,0,0.1c-0.1,0-0.2,0-0.3,0c-0.1-0.2-0.3-0.4-0.5-0.5C11.5,5.2,11.6,5.2,11.7,5.3z M10.9,5.2
	C10.9,5.2,10.9,5.2,10.9,5.2c0.1,0.2,0.4,0.5,0.8,0.6c0,0-0.1,0-0.1,0.1c-0.2,0-0.4-0.1-0.5-0.1C11,5.7,11,5.6,10.9,5.6
	c-0.1,0,0-0.1,0-0.1C10.8,5.4,10.8,5.5,10.9,5.2z M10.7,8.1c0,0.1,0.1,0.3,0.1,0.4c0,0,0,0.1,0,0.1c0-0.3-0.1-0.4-0.2-0.5
	C10.6,8.1,10.7,8.1,10.7,8.1z M6.3,10.5c0.5-0.6,0.6-0.8,0.5-1.1C6.6,9.1,6.3,8.7,6.2,8.5C6,8.4,5.8,8.2,5.1,8.5
	c-0.5,0.2-0.8,0-1-0.3c0,0,0.1,0,0.1,0c0.1,0,0.1,0,0.2,0c0.1,0,0.2,0,0.3-0.1c0.1-0.1,0.1,0,0.1,0c0,0,0.1,0,0.2-0.1
	C5,8,5.2,7.9,5.2,7.9c0.1,0,0.2-0.1,0.3-0.2c0.1-0.1,0,0,0.1,0c0,0,0.1,0,0.1,0C5.8,7.7,6,7.7,6,7.7c0.1,0,0.3-0.2,0.3-0.2
	c0.1,0,0.2-0.1,0.2-0.1c0.2,0.1,0.3,0,0.3-0.1C6.9,7.1,7,7.1,7.1,7.1C7.1,7,7.2,7,7.2,6.9c0.1-0.1,0.1,0,0.1,0c0.1,0,0.1-0.1,0.1,0
	c0,0.1,0,0.1,0.1,0c0.1-0.1,0,0.3,0.1,0.4c0,0.1,0.1,0.2,0.2,0.2c0.2,0,0.3-0.2,0.3-0.2c0.1,0,0.3,0,0.3-0.1c0-0.1,0.1-0.1,0.1,0
	c0,0,0.2,0,0.2-0.1c0.1-0.1,0.1,0,0.1,0c0,0.1,0.1,0,0.1,0c0,0,0.1,0,0.1,0c0.1,0,0.1,0,0.2,0c0.1,0,0,0.1,0,0.2
	c0,0.1,0.1,0.1,0.1,0.2c0,0.1,0.1,0.1,0.1,0.1c0.1,0,0.2,0.1,0.3,0.2c0.1,0.1,0.2,0,0.3,0c0,0.1,0,0.2,0.1,0.2c0,0,0.1-0.1,0.1-0.2
	c0,0.1,0.1,0,0.1,0.1c0,0-0.3,0.7,0,1.2h0c0,0,0,0,0-0.1c0,0.4,0,0.4,0,0.4s-0.2,0.2-0.3,0.6c-0.8-0.4-1.7-0.2-2.6,0
	C6.9,10.5,6.3,10.5,6.3,10.5z M10.1,11.2c-0.1,0.3-0.2,0.6-0.4,0.9c-0.9,0-1.6-0.3-1.9-0.5c0.1,0,0.2-0.1,0.2-0.1
	c0.5-0.2,0.9-0.3,1.9-0.3C10,11.2,10,11.2,10.1,11.2z M7.1,11.7c0.1,0,0.2,0,0.3,0c0.3,0.3,1,0.8,2.4,0.8c1.8,0,2.7-0.9,2.7-0.9
	s0.9,0.9,2.7,0.9c1.4,0,2.1-0.6,2.4-0.8c0.1,0,0.2,0,0.3,0c0.2,1.8-0.1,4.4-0.1,4.4h-5.2H7.3C7.3,16,6.9,13.5,7.1,11.7z M7.3,16.4
	h5.2h5.2c0,0-0.2,2-1,3.7h-4.2H8.3C7.4,18.3,7.3,16.4,7.3,16.4z M12.4,24.9c-3.1-2.3-4-4.6-4-4.6h4h4C16.4,20.3,15.5,22.6,12.4,24.9
	z"/>
<path class="st0" d="M14.4,15.8c0.2,0,0.3-0.1,0.5-0.2c0.1,0,0.2,0,0.2,0c0.3,0,0.5-0.2,0.7-0.5c0.1,0,0.3,0,0.4-0.1
	c0.3-0.1,0.4-0.4,0.3-0.8c0,0,0,0,0,0c0.2-0.2,0.2-0.6,0-0.9c0,0,0,0,0,0c0.1-0.1,0.1-0.1,0.1-0.2c0-0.2-0.2-0.3-0.4-0.3
	c-0.2,0-0.4,0.1-0.4,0.3v0c0,0-0.1,0-0.2,0.1c-0.1,0.1-0.1,0.2-0.1,0.3c0,0-0.1,0-0.1,0c0,0-0.1,0.1-0.1,0.1c-0.1,0-0.1,0-0.2,0
	c-0.1,0-0.2,0-0.2,0.1c-0.1-0.1-0.3-0.2-0.5-0.1c-0.5,0-0.9,0.5-0.9,1.1C13.5,15.4,13.9,15.8,14.4,15.8z"/>
<path class="st0" d="M8.4,14.4C8.5,14.4,8.5,14.4,8.4,14.4c0,0.3,0.1,0.6,0.4,0.8c0.1,0.1,0.2,0.1,0.4,0.1c0.1,0.3,0.4,0.5,0.7,0.5
	c0.1,0,0.2,0,0.2,0c0.1,0.1,0.3,0.2,0.5,0.2c0.5,0,0.9-0.5,0.9-1c0-0.6-0.4-1.1-0.9-1.1c-0.2,0-0.3,0-0.5,0.1c-0.1,0-0.2,0-0.2-0.1
	c-0.1,0-0.1,0-0.2,0c0,0-0.1-0.1-0.1-0.1c0,0-0.1,0-0.1,0c0-0.1,0-0.2-0.1-0.3c-0.1-0.1-0.2-0.1-0.2-0.1v0c0-0.2-0.2-0.3-0.4-0.3
	c-0.2,0-0.4,0.1-0.4,0.3c0,0.1,0,0.2,0.1,0.2c0,0,0,0,0,0C8.2,13.8,8.2,14.2,8.4,14.4z"/>
<path class="st0" d="M12.5,19.8l0.4-0.7l-0.1-0.3l0.3,0c0,0.1,0.1,0.3,0.2,0.3c0.1,0,0.4,0,0.4,0l0.1-0.1c-0.2-0.2-0.4-0.3-0.4-0.3
	c0-0.9-0.2-1.5-0.3-1.8c-0.1-0.3-0.3-0.3-0.5-0.3c-0.3,0-1.1,0.5-1.1,0.5l-0.1,0.5l0.3,0c0,0-0.2,0.5-0.2,0.7
	c-0.1,0.2,0,0.2,0.1,0.2c0.1,0.1,0.5,0.2,0.5,0.2l-0.1,0.5L12.5,19.8z"/>
<path class="st0" d="M11.5,14.1c0.2,0.9,0.7,1,1,1c0,0.3-0.1,0.6-0.1,0.6l0.3,0.2c0-0.4,0-0.7,0-0.9c0.7-0.1,0.8-1.1,0.8-1.1
	c-0.7,0.3-0.8,0.8-0.8,1c0-0.4-0.1-0.6-0.2-0.6c0.4,0,0.8-0.4,0.8-0.9c0-0.2-0.1-0.5-0.3-0.6l0.1-0.3l-0.3,0.1l-0.1-0.2l-0.2,0.2
	l-0.1-0.2l-0.1,0.2l-0.3-0.1l0.1,0.2c-0.3,0.1-0.5,0.4-0.5,0.8c0,0.4,0.3,0.8,0.7,0.9c0.1,0.2,0.2,0.5,0.2,0.7
	C12,14.3,11.5,14.1,11.5,14.1z M12.4,14.1c-0.2,0-0.4-0.4-0.4-0.8c0-0.5,0.2-0.8,0.4-0.8c0.2,0,0.4,0.4,0.4,0.8
	C12.8,13.7,12.6,14.1,12.4,14.1z"/>
<path class="st0" d="M13.1,21.4c-0.1-0.2-0.1-0.4,0-0.6h-1c-0.1,0.2-0.1,0.4,0,0.6H13.1z"/>
<path class="st0" d="M12.1,22.7c-0.1,0.2-0.1,0.6,0,0.7h1c-0.1-0.2-0.1-0.6,0-0.7H12.1z"/>
<path class="st0" d="M13.4,22l0.2-0.4H12l-0.2-0.2h-0.1h-0.6l0.1,0.2h0.2l0.2,0.4H13.4z"/>
<path class="st0" d="M13.4,23.6L13.4,23.6h-0.3h-0.2h-0.3h-0.2h-0.3H12l-0.1-0.2h-0.3l0.1,0.2l0.3,0.2h1.4l0.3-0.2l0-0.2h-0.2
	L13.4,23.6z"/>
<path class="st0" d="M55.5,10.4C54,9,51.8,8.2,49.8,8.2c-4.9,0-7.7,3.7-7.7,8.1c0,3.8,2.3,7.5,7.7,7.5c1.8,0,3.4-0.4,5.1-1.9v-4.3
	h-5.8v-3H58v8.6c-2.1,2.3-4.7,3.7-8.2,3.7c-7.7,0-11-5.1-11-10.7c0-6,3.8-11.2,11-11.2c2.8,0,5.6,1,7.7,3.2L55.5,10.4z"/>
<path class="st0" d="M82.1,16.1c0,5.7-3.4,10.9-10.7,10.9s-10.7-5.3-10.7-10.9c0-6.4,4.5-11,10.8-11C78.6,5.1,82.1,10.4,82.1,16.1z
	 M71.4,23.9c5.2,0,7.4-3.7,7.4-7.7c0-3.9-2.2-7.9-7.3-8c-4.9,0-7.5,3.4-7.5,8C64.1,19.9,66.2,23.9,71.4,23.9z"/>
<path class="st0" d="M95.2,27h-3.6l-9-21.8h3.9l6.9,17.7l6.9-17.7h3.9L95.2,27z"/>
<path class="st0" d="M106.5,24.8c0,2.9-4.4,2.9-4.4,0C102.1,21.9,106.5,21.9,106.5,24.8z"/>
<path class="st0" d="M127.6,23.9c-2.2,2.1-5,3.1-7.9,3.1c-7.6,0-11.1-5.3-11.1-10.8c0-5.5,3.6-11.1,11.1-11.1c2.8,0,5.6,1.1,7.7,3.2
	l-2.3,2.2c-1.5-1.5-3.5-2.2-5.4-2.2c-5.3,0-7.8,3.9-7.7,7.8c0,3.9,2.3,7.7,7.7,7.7c2,0,4.1-0.8,5.6-2.3L127.6,23.9z"/>
<path class="st0" d="M151.8,16.1c0,5.7-3.4,10.8-10.7,10.8c-7.3,0-10.7-5.3-10.7-10.8c0-6.4,4.4-11,10.7-11
	C148.3,5.2,151.8,10.5,151.8,16.1z M141.1,23.9c5.2,0,7.4-3.7,7.4-7.7c0-3.9-2.2-7.9-7.3-8c-4.8,0-7.4,3.4-7.4,8
	C133.8,19.9,136,23.9,141.1,23.9z"/>
<path class="st1" d="M32.5,0.7h-2.3v13.1h2.3V0.7z"/>
<path class="st2" d="M32.5,13.9h-2.3v8.8h2.3V13.9z"/>
<path class="st3" d="M32.5,22.6h-2.3v8.8h2.3V22.6z"/>
</svg>
